<!DOCTYPE svg PUBLIC "-//W3C//DTD SVG 20010904//EN" "http://www.w3.org/TR/2001/REC-SVG-20010904/DTD/svg10.dtd">
<svg version="1.0" xmlns="http://www.w3.org/2000/svg" width="500px" height="500px" viewBox="0 0 5000 5000" preserveAspectRatio="xMidYMid meet">
<g id="layer101" fill="#090a0b" stroke="none">
 <path d="M2455 4266 c-16 -8 -61 -32 -100 -55 -80 -47 -100 -49 -211 -20 -127 34 -151 27 -248 -70 -92 -92 -113 -101 -227 -101 -42 0 -90 -5 -108 -11 -36 -13 -77 -67 -111 -147 -31 -72 -73 -105 -172 -137 -136 -44 -147 -56 -172 -200 -8 -49 -23 -100 -34 -114 -10 -14 -47 -45 -81 -68 -127 -84 -139 -108 -121 -242 15 -109 7 -140 -60 -220 -92 -111 -97 -141 -41 -268 40 -93 40 -133 -4 -239 -51 -123 -47 -147 37 -248 77 -92 83 -112 68 -226 -17 -138 -7 -157 118 -242 84 -57 103 -88 122 -204 19 -119 42 -143 176 -183 93 -29 126 -58 177 -161 56 -113 82 -130 191 -130 123 0 151 -11 225 -88 35 -37 76 -75 90 -84 34 -23 88 -22 180 2 116 31 111 32 274 -60 75 -42 110 -38 216 25 100 58 127 62 229 36 142 -37 149 -35 256 67 101 97 111 101 236 102 106 1 138 21 190 121 60 118 77 133 189 170 118 40 144 63 161 145 37 181 36 181 144 254 106 71 110 79 102 220 -4 67 -3 127 2 141 6 13 35 56 66 94 76 94 84 123 56 200 -12 33 -31 86 -42 118 l-21 57 23 63 c12 34 31 86 41 115 26 70 15 109 -52 187 -80 95 -81 99 -73 240 8 147 9 145 -103 226 -88 63 -119 101 -128 162 -23 153 -39 182 -118 211 -23 9 -68 25 -100 37 -72 26 -87 42 -143 151 -57 110 -87 128 -214 128 -106 0 -149 20 -220 100 -83 96 -112 104 -241 70 -102 -27 -134 -25 -199 12 -148 84 -167 90 -225 64z m330 -391 c443 -82 828 -363 1048 -765 20 -36 43 -82 52 -102 l15 -38 -62 0 -63 0 -40 77 c-87 166 -236 340 -394 459 -161 122 -405 227 -604 259 -117 19 -326 19 -442 0 -190 -31 -400 -116 -563 -227 -165 -114 -333 -302 -426 -478 l-47 -90 -64 0 -64 0 22 48 c219 471 636 786 1147 866 119 19 358 14 485 -9z m-40 -191 c180 -30 393 -122 544 -234 140 -105 284 -270 370 -422 l32 -58 -1170 0 c-644 0 -1171 4 -1171 8 0 5 22 45 49 90 192 319 511 545 866 611 61 11 128 22 150 25 64 6 233 -4 330 -20z m-905 -854 c12 -7 15 -32 15 -115 0 -121 -2 -125 -77 -125 l-48 0 0 125 0 125 48 0 c26 0 54 -5 62 -10z m190 -10 c0 -17 -7 -20 -40 -20 -39 0 -40 -1 -40 -35 0 -33 2 -35 35 -35 28 0 35 -4 35 -20 0 -16 -7 -20 -35 -20 -32 0 -35 -2 -35 -30 0 -28 2 -30 40 -30 33 0 40 -3 40 -20 0 -18 -7 -20 -60 -20 l-60 0 0 125 0 125 60 0 c53 0 60 -2 60 -20z m164 14 c18 -7 31 -63 22 -97 -4 -16 -19 -29 -47 -40 -33 -13 -40 -20 -37 -39 4 -30 38 -38 38 -9 0 16 6 21 26 21 24 0 26 -3 20 -32 -8 -39 -20 -48 -68 -48 -44 0 -58 19 -58 78 0 43 11 57 53 67 22 6 27 13 27 36 0 34 -29 41 -37 9 -7 -27 -43 -27 -43 1 0 39 19 59 55 59 18 0 40 -3 49 -6z m116 -34 c0 -37 2 -40 28 -40 48 0 57 -13 57 -85 0 -77 -7 -85 -77 -85 l-48 0 0 125 c0 118 1 125 20 125 17 0 20 -7 20 -40z m260 20 c0 -17 -7 -20 -40 -20 -39 0 -40 -1 -40 -35 0 -33 2 -35 35 -35 28 0 35 -4 35 -20 0 -16 -7 -20 -35 -20 -32 0 -35 -2 -35 -30 0 -28 2 -30 40 -30 33 0 40 -3 40 -20 0 -18 -7 -20 -60 -20 l-60 0 0 125 0 125 60 0 c53 0 60 -2 60 -20z m100 -20 c0 -52 23 -54 36 -2 6 27 15 38 31 40 20 3 21 1 11 -34 -7 -26 -7 -44 1 -61 14 -30 14 -108 1 -134 -9 -15 -22 -19 -65 -19 l-55 0 0 125 c0 118 1 125 20 125 17 0 20 -7 20 -40z m258 28 c16 -16 16 -210 0 -226 -7 -7 -34 -12 -60 -12 l-48 0 0 125 0 125 48 0 c26 0 53 -5 60 -12z m112 -113 c0 -118 -1 -125 -20 -125 -19 0 -20 7 -20 125 0 118 1 125 20 125 19 0 20 -7 20 -125z m168 113 c7 -7 12 -25 12 -40 0 -21 -5 -28 -20 -28 -13 0 -20 7 -20 20 0 13 -7 20 -20 20 -18 0 -20 -7 -20 -85 0 -78 2 -85 20 -85 13 0 20 7 20 20 0 13 7 20 20 20 15 0 20 -7 20 -28 0 -37 -17 -52 -60 -52 -54 0 -60 12 -60 125 0 113 6 125 60 125 20 0 41 -5 48 -12z m112 -113 c0 -118 -1 -125 -20 -125 -19 0 -20 7 -20 125 0 118 1 125 20 125 19 0 20 -7 20 -125z m168 113 c8 -8 12 -48 12 -113 0 -113 -6 -125 -60 -125 -54 0 -60 12 -60 125 0 113 6 125 60 125 20 0 41 -5 48 -12z m-2348 -440 c0 -547 352 -1058 868 -1262 192 -76 356 -102 572 -93 261 12 482 83 693 223 189 126 358 313 458 507 106 206 148 362 156 585 l6 152 60 0 60 0 -6 -142 c-13 -303 -92 -545 -259 -795 -127 -189 -350 -388 -550 -489 -480 -243 -1059 -211 -1503 84 -317 211 -537 521 -631 889 -29 115 -48 305 -39 391 l7 62 54 0 54 0 0 -112z m2676 86 c9 -35 -4 -210 -22 -308 -48 -254 -161 -471 -342 -658 -180 -186 -377 -300 -639 -369 -115 -30 -374 -38 -513 -14 -352 58 -667 265 -867 567 -142 215 -213 448 -213 701 l0 107 1295 0 1295 0 6 -26z"/>
 <path d="M1760 3235 c0 -50 4 -85 10 -85 6 0 10 32 10 75 0 60 3 75 15 75 8 0 15 5 15 10 0 6 -11 10 -25 10 -25 0 -25 -1 -25 -85z"/>
 <path d="M1836 3313 c-16 -16 -5 -63 18 -79 15 -9 23 -21 19 -30 -4 -12 -8 -12 -18 3 -17 22 -29 12 -20 -17 5 -16 13 -20 33 -18 26 3 27 5 30 74 l3 71 -30 1 c-16 0 -32 -2 -35 -5z m40 -60 c-12 -12 -29 15 -21 34 7 17 8 16 18 -5 5 -12 7 -25 3 -29z"/>
 <path d="M1964 3306 c-3 -7 -4 -40 -2 -72 3 -54 5 -59 27 -62 25 -4 41 12 41 41 0 24 -21 21 -27 -4 -8 -28 -23 -4 -23 36 0 42 16 65 25 36 7 -24 25 -29 25 -7 0 30 -13 46 -36 46 -14 0 -27 -6 -30 -14z"/>
 <path d="M2062 3308 c-6 -6 -12 -35 -12 -64 0 -55 15 -78 47 -72 15 3 18 14 18 73 0 63 -2 70 -20 73 -11 1 -26 -3 -33 -10z m38 -63 c0 -24 -4 -47 -10 -50 -6 -4 -10 15 -10 50 0 35 4 54 10 50 6 -3 10 -26 10 -50z"/>
 <path d="M2150 3246 l0 -73 58 1 57 1 3 73 c2 59 0 72 -13 72 -12 0 -15 -13 -15 -66 0 -41 -4 -63 -10 -59 -5 3 -10 33 -10 66 0 79 -18 76 -22 -3 -2 -35 -7 -63 -13 -63 -5 0 -11 28 -13 63 -4 87 -22 78 -22 -12z"/>
 <path d="M2300 3245 c0 -43 4 -75 10 -75 6 0 10 32 10 75 0 43 -4 75 -10 75 -6 0 -10 -32 -10 -75z"/>
 <path d="M2357 3313 c-4 -3 -7 -35 -7 -71 0 -55 3 -65 20 -69 11 -3 20 -12 20 -19 0 -8 7 -14 15 -14 12 0 15 17 15 90 l0 90 -28 0 c-16 0 -32 -3 -35 -7z m33 -69 c0 -34 -4 -53 -10 -49 -18 11 -12 105 7 105 2 0 3 -25 3 -56z"/>
 <path d="M2444 3294 c-8 -32 2 -55 26 -61 20 -5 29 -43 10 -43 -5 0 -10 7 -10 15 0 8 -5 15 -11 15 -19 0 -5 -45 15 -48 30 -6 46 26 46 89 l0 57 -35 0 c-29 0 -36 -4 -41 -24z m46 -25 c0 -17 -4 -28 -10 -24 -5 3 -10 17 -10 31 0 13 5 24 10 24 6 0 10 -14 10 -31z"/>
 <path d="M2580 3246 l0 -74 33 1 32 2 3 73 c2 59 0 72 -13 72 -12 0 -15 -13 -15 -66 0 -41 -4 -63 -10 -59 -5 3 -10 33 -10 66 0 33 -4 59 -10 59 -6 0 -10 -31 -10 -74z"/>
 <path d="M2680 3301 c-5 -11 -10 -36 -10 -56 0 -46 15 -75 40 -75 25 0 40 29 40 75 0 46 -15 75 -40 75 -11 0 -24 -9 -30 -19z m40 -56 c0 -30 -4 -55 -10 -55 -5 0 -10 25 -10 55 0 30 5 55 10 55 6 0 10 -25 10 -55z"/>
 <path d="M2811 3301 c-14 -26 -14 -31 4 -31 8 0 15 8 15 17 0 13 3 14 11 6 9 -9 5 -20 -15 -44 -29 -34 -30 -56 -5 -72 22 -14 49 -2 49 23 0 25 -9 26 -26 3 -9 -12 -13 -13 -14 -5 0 7 9 26 21 41 26 35 22 75 -8 79 -14 2 -26 -4 -32 -17z"/>
 <path d="M2897 3314 c-10 -10 -9 -116 2 -132 4 -8 19 -12 32 -10 20 2 25 10 27 41 3 34 1 37 -22 37 -26 0 -33 14 -17 38 6 10 10 9 14 -7 8 -31 29 -26 25 7 -2 20 -9 28 -28 30 -14 2 -29 0 -33 -4z m43 -91 c0 -10 -20 -40 -20 -31 0 3 -3 13 -6 22 -4 11 -1 16 10 16 9 0 16 -3 16 -7z"/>
 <path d="M3027 3313 c-5 -8 -11 -123 -8 -150 1 -14 31 -18 32 -5 6 71 2 162 -8 162 -6 0 -14 -3 -16 -7z"/>
 <path d="M3080 3245 c0 -60 3 -75 15 -75 12 0 15 15 15 75 0 60 -3 75 -15 75 -12 0 -15 -15 -15 -75z"/>
 <path d="M3140 3246 c0 -72 1 -73 25 -73 28 0 33 12 10 21 -11 4 -15 21 -15 66 0 33 -4 60 -10 60 -6 0 -10 -31 -10 -74z"/>
 <path d="M3206 3313 c-16 -17 -4 -63 22 -81 22 -17 25 -23 15 -33 -11 -11 -13 -10 -13 4 0 9 -7 17 -16 17 -19 0 -15 -29 7 -43 35 -22 49 -2 49 71 l0 69 -29 1 c-16 0 -32 -2 -35 -5z m44 -49 c0 -14 -4 -22 -10 -19 -5 3 -10 17 -10 31 0 14 4 22 10 19 6 -3 10 -17 10 -31z"/>
 <path d="M2300 3150 c0 -5 5 -10 10 -10 6 0 10 5 10 10 0 6 -4 10 -10 10 -5 0 -10 -4 -10 -10z"/>
 <path d="M3080 3150 c0 -5 7 -10 15 -10 8 0 15 5 15 10 0 6 -7 10 -15 10 -8 0 -15 -4 -15 -10z"/>
 <path d="M1774 2787 c-3 -8 -4 -45 -2 -83 2 -56 6 -69 21 -72 15 -3 17 6 17 82 0 71 -3 86 -15 86 -9 0 -18 -6 -21 -13z"/>
 <path d="M2314 2706 c-10 -27 1 -71 19 -74 14 -3 17 4 17 42 0 35 -4 46 -15 46 -9 0 -18 -6 -21 -14z"/>
 <path d="M2674 2707 c-3 -9 -4 -28 -2 -44 2 -20 8 -28 23 -28 17 0 20 7 20 40 0 30 -4 41 -18 43 -9 2 -20 -3 -23 -11z"/>
 <path d="M2860 2715 c0 -78 2 -85 20 -85 18 0 20 7 20 85 0 78 -2 85 -20 85 -18 0 -20 -7 -20 -85z"/>
 <path d="M3420 2715 c0 -78 2 -85 20 -85 18 0 20 7 20 85 0 78 -2 85 -20 85 -18 0 -20 -7 -20 -85z"/>
 <path d="M2119 2351 c-26 -27 -29 -36 -29 -96 l0 -66 48 3 c46 3 47 4 44 34 -3 32 18 64 43 64 37 0 45 -12 45 -70 l0 -58 -87 -29 -88 -30 -3 -117 -3 -117 30 -29 c28 -28 34 -30 111 -30 77 0 83 2 111 29 26 27 29 36 29 96 l0 66 -47 -3 -48 -3 -3 -40 c-4 -41 -14 -55 -44 -55 -30 0 -48 29 -48 80 l0 48 83 28 c45 14 88 31 95 37 8 6 12 43 12 119 0 108 0 110 -29 139 -28 27 -34 29 -111 29 -77 0 -83 -2 -111 -29z"/>
 <path d="M2445 2367 c-3 -7 -4 -134 -3 -282 l3 -270 48 -3 47 -3 0 285 0 286 -45 0 c-28 0 -48 -5 -50 -13z"/>
 <path d="M2610 2095 l0 -286 47 3 47 3 51 142 c27 79 53 143 58 143 4 0 7 -65 7 -145 l0 -145 45 0 45 0 0 285 0 285 -44 0 -44 0 -26 -72 c-14 -40 -39 -109 -55 -153 l-30 -80 -3 150 -3 150 -47 3 -48 3 0 -286z"/>
 <path d="M2244 1676 c-38 -38 -45 -85 -18 -124 13 -19 13 -28 4 -58 -40 -120 45 -286 168 -330 44 -16 150 -18 187 -4 20 8 29 6 45 -10 26 -26 54 -25 96 1 64 39 83 100 44 139 -16 16 -18 24 -9 47 6 16 11 56 11 90 1 143 -106 257 -252 270 -33 3 -73 0 -94 -7 -32 -10 -40 -10 -55 4 -10 9 -35 16 -55 16 -30 0 -45 -7 -72 -34z m106 -8 c-2 -12 -100 -105 -105 -100 -28 29 35 116 80 110 14 -2 25 -6 25 -10z m147 -386 c-9 -10 -17 -26 -17 -35 0 -21 -9 -21 -32 0 -23 21 -23 43 1 43 10 0 24 7 31 15 9 11 16 13 23 6 7 -7 5 -16 -6 -29z m259 -16 c7 -19 -21 -73 -45 -86 -19 -9 -71 -14 -71 -6 0 6 95 103 103 105 4 0 10 -5 13 -13z"/>
 </g>
<g id="layer102" fill="#cf1d2b" stroke="none">
 <path d="M2455 4266 c-16 -8 -61 -32 -100 -55 -80 -47 -100 -49 -211 -20 -127 34 -151 27 -248 -70 -92 -92 -113 -101 -227 -101 -42 0 -90 -5 -108 -11 -36 -13 -77 -67 -111 -147 -31 -72 -73 -105 -172 -137 -136 -44 -147 -56 -172 -200 -8 -49 -23 -100 -34 -114 -10 -14 -47 -45 -81 -68 -127 -84 -139 -108 -121 -242 15 -109 7 -140 -60 -220 -92 -111 -97 -141 -41 -268 40 -93 40 -133 -4 -239 -51 -123 -47 -147 37 -248 77 -92 83 -112 68 -226 -17 -138 -7 -157 118 -242 84 -57 103 -88 122 -204 19 -119 42 -143 176 -183 93 -29 126 -58 177 -161 56 -113 82 -130 191 -130 123 0 151 -11 225 -88 35 -37 76 -75 90 -84 34 -23 88 -22 180 2 116 31 111 32 274 -60 75 -42 110 -38 216 25 100 58 127 62 229 36 142 -37 149 -35 256 67 101 97 111 101 236 102 106 1 138 21 190 121 60 118 77 133 189 170 118 40 144 63 161 145 37 181 36 181 144 254 106 71 110 79 102 220 -4 67 -3 127 2 141 6 13 35 56 66 94 76 94 84 123 56 200 -12 33 -31 86 -42 118 l-21 57 23 63 c12 34 31 86 41 115 26 70 15 109 -52 187 -80 95 -81 99 -73 240 8 147 9 145 -103 226 -88 63 -119 101 -128 162 -23 153 -39 182 -118 211 -23 9 -68 25 -100 37 -72 26 -87 42 -143 151 -57 110 -87 128 -214 128 -106 0 -149 20 -220 100 -83 96 -112 104 -241 70 -102 -27 -134 -25 -199 12 -148 84 -167 90 -225 64z m330 -391 c443 -82 828 -363 1048 -765 20 -36 43 -82 52 -102 l15 -38 -62 0 -63 0 -40 77 c-87 166 -236 340 -394 459 -161 122 -405 227 -604 259 -117 19 -326 19 -442 0 -190 -31 -400 -116 -563 -227 -165 -114 -333 -302 -426 -478 l-47 -90 -64 0 -64 0 22 48 c219 471 636 786 1147 866 119 19 358 14 485 -9z m-40 -191 c180 -30 393 -122 544 -234 140 -105 284 -270 370 -422 l32 -58 -1170 0 c-644 0 -1171 4 -1171 8 0 5 22 45 49 90 192 319 511 545 866 611 61 11 128 22 150 25 64 6 233 -4 330 -20z m-905 -854 c12 -7 15 -32 15 -115 0 -121 -2 -125 -77 -125 l-48 0 0 125 0 125 48 0 c26 0 54 -5 62 -10z m190 -10 c0 -17 -7 -20 -40 -20 -39 0 -40 -1 -40 -35 0 -33 2 -35 35 -35 28 0 35 -4 35 -20 0 -16 -7 -20 -35 -20 -32 0 -35 -2 -35 -30 0 -28 2 -30 40 -30 33 0 40 -3 40 -20 0 -18 -7 -20 -60 -20 l-60 0 0 125 0 125 60 0 c53 0 60 -2 60 -20z m164 14 c18 -7 31 -63 22 -97 -4 -16 -19 -29 -47 -40 -33 -13 -40 -20 -37 -39 4 -30 38 -38 38 -9 0 16 6 21 26 21 24 0 26 -3 20 -32 -8 -39 -20 -48 -68 -48 -44 0 -58 19 -58 78 0 43 11 57 53 67 22 6 27 13 27 36 0 34 -29 41 -37 9 -7 -27 -43 -27 -43 1 0 39 19 59 55 59 18 0 40 -3 49 -6z m116 -34 c0 -37 2 -40 28 -40 48 0 57 -13 57 -85 0 -77 -7 -85 -77 -85 l-48 0 0 125 c0 118 1 125 20 125 17 0 20 -7 20 -40z m260 20 c0 -17 -7 -20 -40 -20 -39 0 -40 -1 -40 -35 0 -33 2 -35 35 -35 28 0 35 -4 35 -20 0 -16 -7 -20 -35 -20 -32 0 -35 -2 -35 -30 0 -28 2 -30 40 -30 33 0 40 -3 40 -20 0 -18 -7 -20 -60 -20 l-60 0 0 125 0 125 60 0 c53 0 60 -2 60 -20z m100 -20 c0 -52 23 -54 36 -2 6 27 15 38 31 40 20 3 21 1 11 -34 -7 -26 -7 -44 1 -61 14 -30 14 -108 1 -134 -9 -15 -22 -19 -65 -19 l-55 0 0 125 c0 118 1 125 20 125 17 0 20 -7 20 -40z m258 28 c16 -16 16 -210 0 -226 -7 -7 -34 -12 -60 -12 l-48 0 0 125 0 125 48 0 c26 0 53 -5 60 -12z m112 -113 c0 -118 -1 -125 -20 -125 -19 0 -20 7 -20 125 0 118 1 125 20 125 19 0 20 -7 20 -125z m168 113 c7 -7 12 -25 12 -40 0 -21 -5 -28 -20 -28 -13 0 -20 7 -20 20 0 13 -7 20 -20 20 -18 0 -20 -7 -20 -85 0 -78 2 -85 20 -85 13 0 20 7 20 20 0 13 7 20 20 20 15 0 20 -7 20 -28 0 -37 -17 -52 -60 -52 -54 0 -60 12 -60 125 0 113 6 125 60 125 20 0 41 -5 48 -12z m112 -113 c0 -118 -1 -125 -20 -125 -19 0 -20 7 -20 125 0 118 1 125 20 125 19 0 20 -7 20 -125z m168 113 c8 -8 12 -48 12 -113 0 -113 -6 -125 -60 -125 -54 0 -60 12 -60 125 0 113 6 125 60 125 20 0 41 -5 48 -12z m-2348 -440 c0 -547 352 -1058 868 -1262 192 -76 356 -102 572 -93 261 12 482 83 693 223 189 126 358 313 458 507 106 206 148 362 156 585 l6 152 60 0 60 0 -6 -142 c-13 -303 -92 -545 -259 -795 -127 -189 -350 -388 -550 -489 -480 -243 -1059 -211 -1503 84 -317 211 -537 521 -631 889 -29 115 -48 305 -39 391 l7 62 54 0 54 0 0 -112z m2676 86 c9 -35 -4 -210 -22 -308 -48 -254 -161 -471 -342 -658 -180 -186 -377 -300 -639 -369 -115 -30 -374 -38 -513 -14 -352 58 -667 265 -867 567 -142 215 -213 448 -213 701 l0 107 1295 0 1295 0 6 -26z"/>
 <path d="M1774 2787 c-3 -8 -4 -45 -2 -83 2 -56 6 -69 21 -72 15 -3 17 6 17 82 0 71 -3 86 -15 86 -9 0 -18 -6 -21 -13z"/>
 <path d="M2314 2706 c-10 -27 1 -71 19 -74 14 -3 17 4 17 42 0 35 -4 46 -15 46 -9 0 -18 -6 -21 -14z"/>
 <path d="M2674 2707 c-3 -9 -4 -28 -2 -44 2 -20 8 -28 23 -28 17 0 20 7 20 40 0 30 -4 41 -18 43 -9 2 -20 -3 -23 -11z"/>
 <path d="M2860 2715 c0 -78 2 -85 20 -85 18 0 20 7 20 85 0 78 -2 85 -20 85 -18 0 -20 -7 -20 -85z"/>
 <path d="M3420 2715 c0 -78 2 -85 20 -85 18 0 20 7 20 85 0 78 -2 85 -20 85 -18 0 -20 -7 -20 -85z"/>
 <path d="M2385 1614 c-72 -50 -105 -109 -105 -189 0 -124 75 -207 201 -222 66 -8 127 16 177 71 94 101 77 251 -36 331 -38 26 -54 30 -120 33 -70 3 -81 1 -117 -24z m112 -332 c-9 -10 -17 -26 -17 -35 0 -21 -9 -21 -32 0 -23 21 -23 43 1 43 10 0 24 7 31 15 9 11 16 13 23 6 7 -7 5 -16 -6 -29z"/>
 </g>
<g id="layer103" fill="#f82121" stroke="none">
 <path d="M2455 4266 c-16 -8 -61 -32 -100 -55 -80 -47 -100 -49 -211 -20 -127 34 -151 27 -248 -70 -92 -92 -113 -101 -227 -101 -42 0 -90 -5 -108 -11 -36 -13 -77 -67 -111 -147 -31 -72 -73 -105 -172 -137 -136 -44 -147 -56 -172 -200 -8 -49 -23 -100 -34 -114 -10 -14 -47 -45 -81 -68 -127 -84 -139 -108 -121 -242 15 -109 7 -140 -60 -220 -92 -111 -97 -141 -41 -268 40 -93 40 -133 -4 -239 -51 -123 -47 -147 37 -248 77 -92 83 -112 68 -226 -17 -138 -7 -157 118 -242 84 -57 103 -88 122 -204 19 -119 42 -143 176 -183 93 -29 126 -58 177 -161 56 -113 82 -130 191 -130 123 0 151 -11 225 -88 35 -37 76 -75 90 -84 34 -23 88 -22 180 2 116 31 111 32 274 -60 75 -42 110 -38 216 25 100 58 127 62 229 36 142 -37 149 -35 256 67 101 97 111 101 236 102 106 1 138 21 190 121 60 118 77 133 189 170 118 40 144 63 161 145 37 181 36 181 144 254 106 71 110 79 102 220 -4 67 -3 127 2 141 6 13 35 56 66 94 76 94 84 123 56 200 -12 33 -31 86 -42 118 l-21 57 23 63 c12 34 31 86 41 115 26 70 15 109 -52 187 -80 95 -81 99 -73 240 8 147 9 145 -103 226 -88 63 -119 101 -128 162 -23 153 -39 182 -118 211 -23 9 -68 25 -100 37 -72 26 -87 42 -143 151 -57 110 -87 128 -214 128 -106 0 -149 20 -220 100 -83 96 -112 104 -241 70 -102 -27 -134 -25 -199 12 -148 84 -167 90 -225 64z m330 -391 c463 -85 860 -386 1072 -812 l46 -93 119 0 118 0 0 -235 0 -235 -64 0 -63 0 -6 -142 c-13 -303 -92 -545 -259 -795 -127 -189 -350 -388 -550 -489 -480 -243 -1059 -211 -1503 84 -414 275 -664 723 -669 1199 l-1 143 -67 0 -68 0 0 235 0 235 120 0 119 0 46 92 c227 451 628 745 1125 822 119 19 358 14 485 -9z"/>
 <path d="M2289 3765 c-183 -31 -399 -119 -557 -227 -165 -114 -333 -302 -426 -478 l-47 -90 43 0 c41 0 46 3 62 38 62 131 235 335 367 433 235 174 496 262 779 261 273 0 506 -70 735 -220 143 -95 321 -288 409 -446 36 -64 38 -66 76 -66 22 0 40 3 40 7 0 14 -85 161 -129 223 -65 93 -202 232 -300 306 -161 122 -405 227 -604 259 -111 18 -342 18 -448 0z"/>
 <path d="M1140 2388 c0 -547 352 -1058 868 -1262 192 -76 356 -102 572 -93 261 12 482 83 693 223 189 126 358 313 458 507 106 206 148 362 156 585 l6 152 -39 0 -39 0 -1 -118 c-4 -330 -129 -633 -362 -874 -180 -186 -377 -300 -639 -369 -115 -30 -374 -38 -513 -14 -352 58 -667 265 -867 567 -142 215 -213 448 -213 701 l0 107 -40 0 -40 0 0 -112z"/>
 <path d="M2385 1614 c-72 -50 -105 -109 -105 -189 0 -124 75 -207 201 -222 66 -8 127 16 177 71 94 101 77 251 -36 331 -38 26 -54 30 -120 33 -70 3 -81 1 -117 -24z m112 -332 c-9 -10 -17 -26 -17 -35 0 -21 -9 -21 -32 0 -23 21 -23 43 1 43 10 0 24 7 31 15 9 11 16 13 23 6 7 -7 5 -16 -6 -29z"/>
 </g>
<g id="layer104" fill="#c26a4e" stroke="none">
 <path d="M2385 1614 c-72 -50 -105 -109 -105 -189 0 -124 75 -207 201 -222 66 -8 127 16 177 71 94 101 77 251 -36 331 -38 26 -54 30 -120 33 -70 3 -81 1 -117 -24z m112 -332 c-9 -10 -17 -26 -17 -35 0 -21 -9 -21 -32 0 -23 21 -23 43 1 43 10 0 24 7 31 15 9 11 16 13 23 6 7 -7 5 -16 -6 -29z"/>
 </g>
<g id="layer105" fill="#78b255" stroke="none">
 <path d="M2425 1633 c-78 -20 -144 -116 -145 -210 0 -127 90 -217 216 -217 75 0 121 21 167 74 122 142 22 363 -162 359 -31 -1 -65 -4 -76 -6z m234 -179 c12 -15 21 -34 21 -44 0 -30 -40 -69 -83 -82 -62 -18 -117 -55 -117 -78 0 -24 -8 -25 -32 -3 -23 21 -23 43 1 43 10 0 24 7 31 15 7 8 9 15 4 15 -4 0 2 10 13 23 11 12 25 38 32 57 26 78 90 105 130 54z"/>
 </g>
<g id="layer106" fill="#ffac33" stroke="none">
 <path d="M2425 1633 c-78 -20 -144 -116 -145 -210 0 -127 90 -217 216 -217 75 0 121 21 167 74 122 142 22 363 -162 359 -31 -1 -65 -4 -76 -6z m113 -55 c19 -19 14 -30 -10 -22 -17 5 -27 0 -44 -22 -20 -24 -24 -26 -30 -11 -16 42 52 87 84 55z m121 -124 c12 -15 21 -34 21 -44 0 -30 -40 -69 -83 -82 -62 -18 -117 -55 -117 -78 0 -24 -8 -25 -32 -3 -23 21 -23 43 1 43 10 0 24 7 31 15 7 8 9 15 4 15 -4 0 2 10 13 23 11 12 25 38 32 57 26 78 90 105 130 54z m-291 -32 c-10 -26 -10 -37 0 -52 15 -25 15 -30 -1 -30 -8 0 -22 9 -31 19 -24 27 -17 72 14 88 31 15 32 14 18 -25z"/>
 </g>

</svg>